<svg width="147" height="71" viewBox="0 0 147 71" fill="none" xmlns="http://www.w3.org/2000/svg">
<path d="M117.107 16.1021L107.1 16.0598C107.99 14.0775 109.344 12.4676 111.171 11.2448C112.985 10.0307 115.018 9.40768 117.279 9.40768H124.602L135.163 0.0585938H117.279C113.521 0.0585938 110.079 0.959023 106.953 2.80482C103.855 4.63333 101.352 7.10043 99.5042 10.1724C97.6522 13.2496 96.724 16.6604 96.724 20.3632V41.7497H106.179L106.209 25.5264L117.107 16.103V16.1021Z" fill="white"/>
<path d="M126.563 25.7054L136.57 25.7477C135.68 27.7301 134.325 29.34 132.498 30.5627C130.684 31.776 128.651 32.3999 126.39 32.3999H119.066L108.506 41.7489H126.389C130.147 41.7489 133.589 40.8485 136.715 39.0027C139.813 37.1742 142.316 34.7071 144.164 31.6351C146.016 28.5579 146.944 25.1472 146.944 21.4444V0.0578613H137.489L137.459 16.2811L126.561 25.7045L126.563 25.7054Z" fill="#E5097F"/>
<path d="M92.8178 32.3998H78.0506C76.0445 32.3998 74.1899 31.8865 72.5198 30.9014C70.8331 29.9059 69.4754 28.5812 68.4772 26.9376C67.4685 25.2655 66.9795 23.4569 66.9795 21.4461V0.0595703H57.5146V21.4461C57.5146 25.1783 58.4349 28.5812 60.3044 31.6368C62.1346 34.7304 64.6358 37.1595 67.7528 39.0044C70.8603 40.8433 74.2914 41.7507 78.0506 41.7507H92.8178V32.4016V32.3998Z" fill="white"/>
<path d="M53.1106 41.6911V20.3141C53.1106 16.5724 52.1614 13.1979 50.2919 10.1138C48.4617 7.02024 45.9658 4.59288 42.8724 2.74622C39.7404 0.909071 36.3049 0 32.5458 0H0V41.6902H9.485V9.34908H21.7109V25.4661H31.3717V9.34908H32.5466C34.5535 9.34908 36.4134 9.85201 38.0774 10.8475C39.7702 11.843 41.1218 13.1677 42.12 14.8113C43.1287 16.4834 43.6177 18.292 43.6177 20.3124V41.6894H53.1123L53.1106 41.6911Z" fill="white"/>
<path d="M140.909 70.9999H127.497C125.936 70.9999 124.517 70.6214 123.24 69.8527C121.95 69.0839 120.933 68.0668 120.165 66.7776C119.396 65.4885 119.017 64.0692 119.017 62.5198V62.0704C119.017 60.5092 119.396 59.1018 120.165 57.8126C120.933 56.5235 121.95 55.5063 123.24 54.7376C124.517 53.9688 125.936 53.5903 127.497 53.5903H132.429C133.991 53.5903 135.41 53.9688 136.687 54.7376C137.976 55.5063 138.993 56.5235 139.762 57.8126C140.531 59.1018 140.909 60.5092 140.909 62.0704V64.2348H123.263C123.618 65.0863 124.174 65.7723 124.931 66.3045C125.688 66.8249 126.539 67.0969 127.497 67.0969H137.006L140.909 70.9999ZM136.604 60.249C136.238 59.3975 135.646 58.7351 134.854 58.2384C134.061 57.7417 133.257 57.4933 132.429 57.4933H127.497C126.563 57.4933 125.723 57.7535 124.978 58.2621C124.233 58.7706 123.677 59.433 123.311 60.249H136.604Z" fill="white"/>
<path d="M108.633 70.9054H103.701C102.14 70.9054 100.721 70.527 99.4433 69.7582C98.1541 68.9894 97.137 67.9723 96.3682 66.6831C95.5995 65.4058 95.221 63.9865 95.221 62.4254V53.4958H99.124V62.4254C99.124 63.2651 99.3369 64.022 99.7508 64.7198C100.165 65.4058 100.721 65.9617 101.407 66.3756C102.104 66.7896 102.861 67.0025 103.701 67.0025H108.633C109.473 67.0025 110.242 66.7896 110.927 66.3756C111.625 65.9617 112.169 65.4058 112.583 64.7198C112.997 64.022 113.21 63.2651 113.21 62.4254V53.4958H117.113V62.4254C117.113 63.9865 116.735 65.4058 115.966 66.6831C115.197 67.9723 114.18 68.9894 112.891 69.7582C111.613 70.527 110.194 70.9054 108.633 70.9054Z" fill="white"/>
<path d="M85.0261 70.9291H80.0941C78.533 70.9291 77.1137 70.5506 75.8364 69.7819C74.5472 69.0131 73.5182 67.996 72.7613 66.7068C71.9925 65.4177 71.6141 63.9984 71.6141 62.449V61.9996C71.6141 60.4384 71.9925 59.031 72.7613 57.7418C73.5182 56.4527 74.5472 55.4355 75.8364 54.6668C77.1137 53.898 78.533 53.5195 80.0941 53.5195H93.5061L89.6032 57.4225H80.0941C79.2544 57.4225 78.4857 57.6354 77.7997 58.0493C77.1019 58.4633 76.546 59.0192 76.132 59.7051C75.7181 60.4029 75.517 61.1599 75.517 61.9996V62.449C75.517 63.2888 75.7181 64.0457 76.132 64.7435C76.546 65.4295 77.1019 65.9854 77.7997 66.3993C78.4857 66.8133 79.2544 67.0261 80.0941 67.0261H85.0261C85.9841 67.0261 86.8356 66.7541 87.5926 66.2219C88.3495 65.6897 88.9172 65.0037 89.272 64.1521H79.148L82.6725 60.2019H93.5061V62.3189C93.5061 63.9629 93.1277 65.4177 92.3589 66.7068C91.5902 67.996 90.5612 69.0131 89.2839 69.7819C87.9947 70.5506 86.5754 70.9291 85.0261 70.9291Z" fill="white"/>
<path d="M69.769 70.8935H65.8661V64.1165H51.7799V70.8935H47.877V61.964C47.877 60.4028 48.2554 58.9953 49.0242 57.7062C49.793 56.417 50.8101 55.3999 52.0993 54.6311C53.3766 53.8624 54.7958 53.4839 56.357 53.4839H61.289C62.8501 53.4839 64.2694 53.8624 65.5467 54.6311C66.8359 55.3999 67.8649 56.417 68.6218 57.7062C69.3906 58.9953 69.769 60.4028 69.769 61.964V70.8935ZM65.4876 60.1662C65.121 59.3383 64.5651 58.6642 63.82 58.1556C63.0749 57.647 62.2233 57.3868 61.289 57.3868H56.357C55.4227 57.3868 54.583 57.647 53.826 58.1556C53.0809 58.6642 52.525 59.3383 52.1584 60.1662H65.4876Z" fill="white"/>
<path d="M46.1974 70.9999H32.7854C31.2242 70.9999 29.805 70.6214 28.5277 69.8527C27.2385 69.0839 26.2214 68.0668 25.4526 66.7776C24.6838 65.4885 24.3054 64.0692 24.3054 62.5198V62.0704C24.3054 60.5092 24.6838 59.1018 25.4526 57.8126C26.2214 56.5235 27.2385 55.5063 28.5277 54.7376C29.805 53.9688 31.2242 53.5903 32.7854 53.5903H37.7174C39.2785 53.5903 40.6978 53.9688 41.9751 54.7376C43.2643 55.5063 44.2814 56.5235 45.0502 57.8126C45.819 59.1018 46.1974 60.5092 46.1974 62.0704V64.2348H28.5513C28.9061 65.0863 29.462 65.7723 30.2189 66.3045C30.9759 66.8249 31.8274 67.0969 32.7854 67.0969H42.2945L46.1974 70.9999ZM41.8923 60.249C41.5257 59.3975 40.9343 58.7351 40.1419 58.2384C39.3495 57.7417 38.5453 57.4933 37.7174 57.4933H32.7854C31.8511 57.4933 31.0114 57.7535 30.2662 58.2621C29.5211 58.7706 28.9653 59.433 28.5986 60.249H41.8923Z" fill="white"/>
<path d="M22.4012 70.9054H8.9774C7.42804 70.9054 6.00879 70.527 4.73145 69.7582C3.44229 68.9894 2.41333 67.9723 1.65639 66.6831C0.887625 65.4058 0.509155 63.9865 0.509155 62.4254V53.4958H4.41212V62.4254C4.41212 63.2651 4.61318 64.022 5.02713 64.7198C5.44108 65.4058 5.99696 65.9617 6.69476 66.3756C7.38074 66.7896 8.1495 67.0025 8.9774 67.0025H22.4012V70.9054Z" fill="white"/>
</svg>
