<svg width="262" height="124" viewBox="0 0 262 124" fill="none" xmlns="http://www.w3.org/2000/svg">
<path d="M5.23162 129.551L21.1302 122.965C51.5462 105.198 85.4047 112.735 119.203 115.703C128.656 116.375 138.442 112.322 144.813 105.553C169.606 80.1472 189.782 50.2279 220.987 32.1857C226.372 29.0194 231.862 26.1518 237.472 23.5893C256.926 12.4407 278.059 15.3 299.223 19.3079C306.274 20.6454 313.333 22.109 320.328 23.2181C333.659 25.4962 347.647 23.8311 360.321 19.149C366.395 16.8975 372.215 13.9706 377.851 10.5521C406.049 -6.54133 429.718 -35.9077 457.567 -55.1853C461.549 -57.7512 466.018 -59.144 468.503 -62.0059C469.123 -62.7208 467.596 -65.3013 466.948 -66.8653C458.497 -62.9066 451.641 -57.3114 443.838 -51.7888C406.097 -23.3101 373.434 21.866 321.585 16.2843C297.628 13.8203 273.23 6.95821 249.736 14.4445C243.161 16.452 236.8 18.8354 230.585 21.5259C199.895 33.664 177.515 57.1544 157.7 84.6273C146.55 99.7948 129.678 109.996 110.382 108.815C85.8072 107.071 61.1053 101.703 37.6118 110.731C30.4558 113.579 24.2559 116.135 19.1675 118.242L3.2689 124.828L5.22837 129.559L5.23162 129.551Z" fill="#E62334"/>
<path d="M10.6681 142.68C10.6681 142.68 16.3898 140.31 26.5638 136.134C57.8399 118.185 91.9105 130.673 125.482 134.2C134.153 135.196 143.414 133.192 149.785 126.424C180.653 95.7463 203.457 55.5699 244.3 37.1034C251.436 32.9284 258.826 30.9896 266.353 30.4848C273.88 29.9801 281.548 30.9071 289.219 32.4651C323.641 43.4013 365.123 50.5287 393.866 22.0546C399.721 17.3129 405.389 12.0875 410.937 6.67985C422.037 -4.13773 432.648 -15.6689 443.285 -25.4237C452.857 -34.4338 464.832 -39.8523 474.236 -49.2511C474.465 -49.8041 473.262 -51.6026 472.614 -53.1666C449.476 -40.3689 431.377 -20.949 412.072 -3.31986C406.686 1.6663 401.068 6.85784 395.224 11.7821C389.379 16.7063 383.306 21.3577 377.001 25.2337C354.611 40.6633 327.241 35.4902 302.698 29.7723C296.979 28.754 291.234 27.8433 285.52 27.2422C276.947 26.3417 268.439 26.1433 260.135 27.3118C251.832 28.4802 243.737 31.0076 235.991 35.5643C202.134 50.1631 181.012 80.0098 158.946 109.789C149.5 122.419 134.486 130.47 118.161 127.6C85.673 122.25 53.7101 114.851 24.6071 131.364L8.70858 137.949L10.6681 142.68Z" fill="#E62334"/>
<path d="M16.1077 155.814C16.1077 155.814 21.8294 153.444 32.0361 149.41C60.6401 134.916 92.8991 140.819 122.384 151.083C135.576 155.252 150.351 153.26 159.593 143.471C189.032 111.553 210.175 70.6842 250.257 50.7393C255.498 48.5167 260.8 47.0495 266.14 46.2183C294.432 42.6674 320.024 56.8352 347.46 61.0643C365.12 63.8398 379.957 47.6035 394.361 37.5979C400.108 33.1398 405.684 28.4237 411.184 23.6033C427.674 9.14667 443.522 -6.01831 460.424 -20.5873C466.728 -26.4116 473.844 -30.2753 479.751 -35.9353C479.98 -36.4883 478.777 -38.2868 478.129 -39.8508C451.909 -22.8733 431.714 0.208516 407.747 20.4461C402.954 24.4963 398.006 28.4233 392.814 32.1352C379.02 42.0237 366.372 56.895 348.028 55.7839C324.006 54.2693 302.158 43.5959 277.982 40.8678C270.57 40.2476 263.071 40.6313 255.404 42.62C249.098 44.374 243.059 46.7402 237.181 49.762C212.274 62.4793 199.279 87.5854 182.869 109.977C169.174 128.953 151.852 148.052 127.741 145.2C94.3983 141.12 61.1822 127.362 30.0593 144.622C19.8699 148.713 14.1482 151.084 14.1482 151.084L16.1077 155.814Z" fill="#E62334"/>
<path d="M21.5463 168.943C21.5463 168.943 27.268 166.573 37.5253 162.692C67.4921 148.124 100.01 155.758 129.976 167.198C151.639 175.199 170.508 160.957 183.289 144.198C203.752 118.289 221.115 90.4573 247.716 71.8767C254.443 67.1676 261.45 64.7231 268.636 63.7211C290.168 60.7374 313.31 70.5007 335.671 74.6578C372.982 81.6811 396.874 52.9773 420.23 30.986C425.378 26.3116 430.602 21.7282 435.897 17.2058C451.779 3.63335 468.28 -9.39541 485.276 -22.6295C485.667 -22.7914 484.302 -24.9809 483.654 -26.5449C464.021 -14.9734 448.157 0.714232 431.423 15.859C425.842 20.9062 420.172 25.8936 414.227 30.653C393.588 48.3771 374.075 74.3508 341.91 69.7831C318.202 66.5323 294.286 57.1737 271.161 59.0555C263.449 59.6887 255.827 61.5683 248.327 65.4235C235.214 71.3197 224.308 80.4247 215.157 91.5572C192.606 120.164 176.527 169.942 132.115 161.273C98.5882 154.521 66.5674 142.558 35.5508 157.909C25.314 161.84 19.5923 164.21 19.5923 164.21L21.5518 168.94L21.5463 168.943Z" fill="#E62334"/>
<path d="M26.9882 182.077C26.9882 182.077 32.7145 179.718 43.0119 175.949C76.2044 159.2 109.78 176.022 143.927 182.059C185.019 189.348 205.428 140.073 228.929 111.531C237.233 101.672 246.961 93.0553 259.426 88.4919C265.957 86.2382 272.848 85.0549 279.927 84.4515C301.133 82.6552 324.037 85.8969 345.258 86.7394C378.962 88.3727 404.744 59.8085 429.456 39.191C435.855 33.5017 442.286 27.8442 448.848 22.2548C461.973 11.076 475.602 0.178847 490.454 -10.1023C490.845 -10.2642 489.48 -12.4537 488.832 -14.0177C468.723 -1.10098 450.374 13.8355 432.699 29.5895C426.81 34.8419 420.992 40.1743 415.185 45.4833C398.512 59.1706 383.608 76.3509 361.4 81.4272C337.235 87.3078 314.438 76.5695 290.416 75.055C279.739 74.2001 269.716 76.2939 260.29 80.3596C227.326 96.6013 207.569 128.638 184.141 156.233C171.885 170.943 155.948 186.719 135.295 177.84C105.464 164.512 71.773 157.364 41.0309 171.182C30.7449 174.978 25.0209 177.343 25.0209 177.343L26.9804 182.073L26.9882 182.077Z" fill="#E62334"/>
<path d="M32.4253 195.205C32.4253 195.205 38.1561 192.857 48.4828 189.128C82.6607 172.577 118.169 186.308 151.525 198.176C173.577 206.01 188.004 182.149 201.204 167.507C223.098 142.844 241.124 111.067 274.758 100.993C280.051 99.8454 285.507 99.45 291.118 99.9904C321.135 102.693 351.677 103.345 378.179 88.6964C399.748 76.5489 417.651 59.9586 436.98 44.6161C443.054 39.8097 449.246 35.1026 455.558 30.4495C468.181 21.1431 481.284 12.0445 494.868 2.75302C495.65 2.4291 493.894 0.401556 494.19 -1.09534C475.182 8.66861 458.682 21.2003 442.93 34.7901C437.677 39.3207 432.51 43.9644 427.351 48.6433C396.263 80.9861 355.861 97.4635 311.402 96.9367C302.513 96.8316 293.459 96.0465 284.285 94.5689C240.28 93.5318 219.708 142.416 192.264 170.301C181.614 181.132 171.505 197.707 154.303 193.825C117.518 184.752 81.9573 166.455 46.5101 184.396C36.1912 188.129 30.4626 190.482 30.4626 190.482L32.4221 195.213L32.4253 195.205Z" fill="#E62334"/>
<path d="M37.8655 208.339C37.8655 208.339 43.5996 205.983 53.9291 202.214C88.0845 184.55 123.911 199.065 157.593 211.721C165.895 215.16 175.488 213.941 181.786 208.119C216.475 174.485 240.312 122.41 293.027 117.091C299.181 116.045 305.423 115.259 311.688 114.619C317.952 113.979 324.234 113.493 330.471 113.051C373.637 109.849 408.029 77.7119 441.449 52.2747C447.481 47.4921 453.639 42.9028 459.972 38.5825C472.636 29.9365 486.015 22.3622 500.54 16.462L499.242 13.3285C484.612 17.3238 471.672 24.2906 459.627 32.7188C453.606 36.9356 447.805 41.5128 442.124 46.2723C407.422 81.4154 363.278 107.566 313.114 111.241C305.944 111.766 298.657 111.836 291.253 111.406C268.013 109.567 249.951 125.759 233.919 140.2C208.383 162.707 194.449 214.345 155.938 205.529C120.42 197.305 86.2974 180.251 51.9645 197.518C41.6313 201.263 35.895 203.613 35.895 203.613L37.8544 208.344L37.8655 208.339Z" fill="#E62334"/>
<path d="M43.306 221.467C43.306 221.467 49.0355 219.1 59.346 215.223C92.2599 197.957 127.511 209.962 160.012 223.101C168.479 226.936 180.311 228.912 186.749 221.2C215.081 188.825 241.167 153.251 280.474 135.375C287.354 132.345 294.437 129.85 301.676 127.857C316.148 123.869 331.237 121.903 346.715 122.37C380.17 103.466 413.133 83.3923 444.202 60.7999C450.551 56.299 457.05 52.052 463.728 48.1117C477.083 40.2443 491.149 33.6434 506.118 28.8171C504.459 28.13 505.211 25.5217 504.82 25.6836C485.191 29.2274 468.771 38.3255 452.939 49.9292C447.559 53.919 442.352 58.0307 437.261 62.172C408.596 85.7236 378.262 108.844 341.605 116.686C326.798 120.064 312.041 123.067 297.727 126.796C290.569 128.658 283.518 130.701 276.677 133.219C244.21 145.1 220.983 169.864 200.967 200.168C192.397 213.809 178.223 226.1 161.937 220.006C128.029 207.909 91.8758 192.606 57.3938 210.541C47.0728 214.378 41.341 216.739 41.341 216.739L43.3005 221.47L43.306 221.467Z" fill="#E62334"/>
<path d="M48.7444 234.602C48.7444 234.602 54.4662 232.232 64.7074 228.125C98.302 209.216 133.12 224.614 167.554 234.661C181.695 238.894 195.234 232.828 204.711 222.482C229.409 195.741 250.668 163.999 284.612 147.958C289.761 145.419 295.032 143.113 300.417 141.037C316.557 134.816 333.655 130.689 351.207 128.766C353.883 128.574 356.229 127.603 358.418 126.238C387.833 105.337 417.858 89.2285 447.034 69.7432C453.552 65.4494 460.234 61.4105 467.115 57.7279C473.997 54.0452 481.069 50.7155 488.359 47.7994C495.753 45.1366 503.395 42.9644 511.324 41.3445C510.677 39.7805 510.094 37.2671 509.703 37.4291C496.161 40.1735 483.33 44.7723 471.129 50.736C465.03 53.7207 459.088 57.0399 453.292 60.6473C427.631 77.3866 402.889 94.0549 376.256 110.597C369.693 114.69 364.797 119.473 358.396 123.956C356.206 125.322 353.631 126.846 350.794 126.647C330.002 126.279 310.694 131.425 292.667 139.802C286.656 142.595 280.792 145.76 275.114 149.357C243.91 170.921 217.876 197.757 192.878 226.003C186.278 233.324 175.976 233.92 167.44 231.037C132.291 220.37 97.3111 204.581 62.8082 223.524C52.5177 227.497 46.796 229.867 46.796 229.867L48.7555 234.597L48.7444 234.602Z" fill="#E62334"/>
<path d="M54.1845 247.736C54.1845 247.736 59.9062 245.366 70.1 241.175C100.293 223.991 134.04 235.697 166.558 243.331C206.566 252.444 227.149 216.859 249.036 192.192C258.284 182.4 267.855 173.39 278.673 165.722C284.814 161.404 291.214 157.462 297.816 153.947C304.418 150.431 311.231 147.332 318.224 144.713C325.217 142.094 332.391 139.96 339.718 138.364C348.514 134.476 359.817 138.51 367.685 132.038C371.557 127.911 375.66 124.095 379.941 120.522C401.348 102.655 427.203 90.809 450.882 76.0909C457.57 72.2689 464.454 68.8109 471.55 65.8329C478.646 62.855 485.945 60.3538 493.441 58.4038C500.955 56.4978 508.689 55.1072 516.659 54.2704C515.62 52.8684 516.601 49.7072 514.484 50.126C507.154 50.9814 499.987 52.2921 492.986 54.0501C485.741 56.0447 478.699 58.5748 471.856 61.5574C465.014 64.54 458.372 67.9752 451.925 71.7876C432.318 84.2776 411.692 95.2922 392.473 108.363C382.864 114.898 373.6 121.942 364.987 129.949C363.356 131.54 360.614 132.676 358.33 132.707C343.549 134.126 329.006 137.427 315.065 142.382C308.093 144.864 301.27 147.754 294.648 151.033C288.025 154.312 281.598 157.987 275.467 162.14C263.1 170.772 252.121 180.824 242.027 191.889C226.961 208.678 216.709 232.648 193.097 238.758C169.875 244.706 147.564 235.14 124.434 229.127C105.085 223.38 85.8712 229.049 68.1496 236.467C57.939 240.632 52.2173 243.002 52.2173 243.002L54.1767 247.732L54.1845 247.736Z" fill="#E62334"/>
<path d="M59.6233 260.864C59.6233 260.864 65.345 258.494 75.5218 254.278C87.6951 248.933 100.385 244.134 114.172 245.301C144.971 247.679 175.4 258.011 205.64 246.859C228.675 238.234 243.381 218.38 258.743 200.094C263.706 194.367 268.839 189.034 274.711 184.099C279.911 179.377 285.333 174.976 290.98 170.914C296.621 166.855 302.481 163.137 308.542 159.794C329.166 147.529 352.024 144.022 375.25 138.072C376.976 137.815 378.384 136.774 379.068 135.11C382.8 130.816 386.767 126.843 390.938 123.128C411.783 104.558 437.561 92.5575 462.132 80.1797C467.3 77.8905 472.593 75.9042 477.999 74.252C486.087 71.7988 494.422 70.0688 502.952 69.1356C509.375 68.817 515.893 67.8851 522.411 67.0174C521.763 65.4534 520.627 62.711 519.683 62.6439C512.463 62.9379 505.34 63.7333 498.342 64.9998C491.344 66.2663 484.462 68.0008 477.747 70.2014C472.134 72.1008 466.623 74.2934 461.239 76.7623C437.118 89.4313 411.455 100.823 390.771 118.862C386.634 122.472 382.695 126.343 379.011 130.547C376.525 133.408 373.885 135.883 370.037 136.561C352.228 141.182 335.011 142.811 318.285 149.842C311.207 152.645 304.359 155.927 297.805 159.713C291.25 163.499 284.986 167.784 279.084 172.616C268.034 181.561 260.386 192.987 251.789 204.349C223.611 242.628 173.993 259.052 128.616 242.524C110.44 236.291 90.7383 240.782 73.5656 249.54C63.3887 253.756 57.667 256.126 57.667 256.126L59.6265 260.856L59.6233 260.864Z" fill="#E62334"/>
<path d="M65.0631 273.999C65.0631 273.999 70.7848 271.629 80.9698 267.448C89.9069 263.153 99.8602 259.488 109.313 260.16C166.415 264.03 231.131 259.695 266.289 209.905C273.314 201.879 280.48 194.103 289.471 188.334C306.872 177.868 321.798 162.969 339.281 157.559C362.639 149.716 386.062 140.936 403.44 123.234C409.196 118.579 415.117 114.184 421.235 110.121C433.471 102.001 446.483 95.2045 460.504 90.2547C467.117 87.6701 473.985 85.6834 481.049 84.4349C488.009 83.0615 495.172 82.3331 502.48 82.3126C510.91 81.8854 519.394 81.3391 527.924 80.3284C527.276 78.7644 526.531 75.86 525.978 75.631C518.451 75.3099 510.995 75.5791 503.653 76.407C496.312 77.235 489.092 78.6193 482.037 80.5286C474.943 82.435 468.039 84.8948 461.35 87.8268C441.009 97.0978 420.913 106.932 402.828 119.952C398.305 123.206 393.912 126.665 389.668 130.359C381.771 137.197 375.916 147.423 364.436 148.507C352.961 149.589 340.833 149.11 330.354 154.824C324.417 158.2 321.107 164.616 315.398 167.439C309.574 170.542 303.846 173.599 298.468 177.033C293.094 180.459 288.067 184.257 283.645 188.831C258.584 213 236.356 242.388 201.065 252.419C173.537 260.151 146.028 256.868 117.514 254.46C104.118 253.131 91.1011 257.142 79.0154 262.684C68.835 266.875 63.1078 269.247 63.1078 269.247L65.0672 273.978L65.0631 273.999Z" fill="#E62334"/>
<path d="M70.5013 287.127C70.5013 287.127 76.223 284.757 86.4317 280.619C96.3699 276.528 106.642 273.647 116.882 273.993C169.552 276.028 224.315 262.054 265.114 227.237C270.291 222.119 275.532 216.999 280.927 212.035C297.104 197.134 314.632 183.596 335.723 175.543C341.203 173.273 344.189 166.075 350.383 164.425C371.42 159.84 389.819 152.219 403.061 135.669C407.051 131.952 411.161 128.417 415.4 125.1C432.356 111.831 451.455 102.1 473.27 98.0059C479.32 96.6159 485.484 95.6883 491.671 95.2033C497.852 94.7205 504.052 94.6747 510.175 95.0483C518.121 95.4152 525.75 95.0033 533.444 93.6552C532.796 92.0912 532.051 89.1868 531.498 88.9578C521.471 89.6724 511.681 89.8372 501.993 90.0307C496.052 90.2205 490.094 90.7593 484.185 91.6782C478.28 92.5949 472.429 93.8894 466.716 95.5786C452.004 98.7049 438.623 104.828 426.331 112.907C420.183 116.944 414.305 121.476 408.669 126.359C391.497 147.408 366.154 153.776 343.309 165.072C327.58 172.503 312.825 182.286 296.574 191.773C289.229 196.189 283.087 202.405 277.222 208.899C237.431 259.389 170.287 271.149 109.431 269.292C106.203 269.255 103.142 269.607 100.238 270.68C94.8984 271.963 89.6414 273.773 84.4677 275.877C74.2713 280.03 68.5496 282.4 68.5496 282.4L70.509 287.131L70.5013 287.127Z" fill="#E62334"/>
<path d="M75.9431 300.261C75.9431 300.261 81.6703 297.888 91.9716 293.802C98.2006 290.912 105.182 288.936 111.863 288.46C119.044 288.414 126.165 287.974 133.223 287.179C140.282 286.385 147.287 285.244 154.231 283.8C182.327 278.079 208.947 267.052 234.683 255.353C242.44 251.714 250.108 247.937 257.698 244.11C265.757 240.313 273.167 234.947 279.15 228.346C304.862 200.72 338.761 186.221 373.633 174.072C391.574 167.557 400.181 150.688 412.665 137.575C417.25 133.456 422.37 130.006 427.813 127.042C438.703 121.105 450.898 117.105 462.629 113.433C469.778 111.13 477.185 109.462 484.782 108.709C492.382 107.961 500.182 108.162 508.085 109.437C518.411 109.741 528.699 109.376 538.942 106.972C538.294 105.408 537.711 102.894 537.158 102.665C531.521 103.168 525.967 103.404 520.472 103.487C514.972 103.571 509.532 103.508 504.133 103.448C496.277 103.392 488.273 103.85 480.375 104.985C464.349 107.914 447.451 111.152 432.909 118.815C428.064 121.37 423.473 124.414 419.268 128.11C400.522 145.966 381.312 164.931 356.16 173.975C352.636 175.435 350.312 178.687 346.957 180.542C331.781 188.202 312.647 187.412 300.301 200.784C293.619 207.907 287.363 215.776 280.464 222.937C273.565 230.098 266.034 236.54 256.795 240.825C219.629 258.511 181.449 277.081 139.998 281.683C133.33 282.374 126.584 282.678 119.74 282.525C109.573 283.291 99.5715 284.97 89.9644 289.065C79.7098 293.171 73.9826 295.544 73.9826 295.544L75.9421 300.274L75.9431 300.261Z" fill="#E62334"/>
<path d="M81.3973 313.383C87.5561 310.277 93.888 307.931 100.34 306.11C106.795 304.294 113.37 303.003 120.008 301.989C143.683 300.486 165.327 291.836 186.732 282.531C192.084 280.205 197.421 277.839 202.769 275.533C208.118 273.228 213.483 270.979 218.891 268.894C227.504 265.327 236.049 262.703 244.824 259.526C251.919 257.278 258.374 254.03 264.55 250.265C269.46 247.025 274.453 243.582 279.447 240.139C305.728 220.537 330.735 186.784 366.607 198.074C388.352 180.808 406.426 159.102 426.411 139.81C433.846 132.84 443.07 129.361 452.832 127.382C462.595 125.409 472.9 124.928 482.49 123.955C490.077 123.516 497.703 123.641 505.033 123.985C511.606 124.185 518.016 124.35 524.047 124.142C531.118 123.503 537.873 122.086 544.626 120.663C543.978 119.099 543.233 116.195 542.68 115.966C535.048 116.372 527.681 118.508 519.889 118.528C512.847 118.691 505.675 118.403 498.516 118.175C491.344 117.946 483.997 118.215 476.723 119.144C466.652 120.483 456.108 121.709 446.344 124.476C436.572 127.24 427.578 131.539 420.57 138.997C409.638 151.358 400.125 164.931 387.358 176.181C368.679 193.093 343.646 192.455 321.229 200.36C317.152 201.591 313.008 203.766 310.131 206.79C296.082 222.7 281.474 238.383 262.065 246.881C255.434 249.97 248.736 252.835 242.007 255.59C236.961 257.661 231.901 259.666 226.844 261.677C211.722 268.192 196.362 273.181 181.739 281.07C175.133 284.497 168.263 287.569 161.18 289.986C154.097 292.404 146.802 294.168 139.332 294.965C126.908 295.983 114.947 295.892 103.108 299.692C94.9863 301.953 87.1084 305.068 79.43 308.649L81.4005 313.375L81.3973 313.383Z" fill="#E62334"/>
<path d="M86.8917 326.507C92.0819 323.944 97.3656 321.872 102.722 320.163C108.079 318.454 113.512 317.1 118.994 315.958C137.497 312.7 155.401 309.413 171.881 299.374C194.27 285.513 217.452 276.013 241.165 267.313C247.09 265.137 253.056 263.014 259.049 260.879C271.075 256.453 284.739 254.006 292.94 242.809C312.682 216.282 342.252 201.285 376.169 207.875C381.221 208.995 385.268 205.48 387.821 201.674C404.435 176.443 423.749 153.307 451.717 143.632C457.357 141.921 463.416 140.927 469.929 140.778C476.24 139.939 482.86 139.848 489.786 140.837C496.622 140.844 503.456 140.878 510.244 140.647C523.815 140.187 537.173 138.667 550.144 133.984L548.36 129.678C541.494 131.374 534.699 132.414 527.943 133.051C521.184 133.696 514.465 133.937 507.746 134.056C500.859 134.173 493.587 134.095 486.273 134.318C477.687 134.881 468.908 134.84 460.364 135.74C451.826 136.638 443.521 138.471 435.901 142.77C413.089 156.355 401.825 181.202 382.358 198.44C370.765 209.204 354.803 203.893 340.623 202.882C336.289 202.387 331.723 202.44 328.458 205.631C307.522 224.852 288.208 247.988 259.926 255.768C253.652 258.128 247.326 260.303 241.029 262.544C228.428 267.015 215.936 271.731 204.138 278.683C177.799 293.722 151.435 306.475 121.292 310.477C115.024 311.622 108.814 313.001 102.733 314.816C96.6475 316.634 90.693 318.894 84.9079 321.78L86.8939 326.513L86.8917 326.507Z" fill="#E62334"/>
<path d="M92.4133 339.634C98.9142 336.715 105.393 333.915 112.069 331.666C126.981 327.154 143.41 325.852 157.804 318.515C185.869 303.219 208.964 280.349 241.057 272.565C247.086 271.061 253.08 269.597 258.995 268.051C289.326 261.745 314.855 244.751 333.262 218.319C333.882 217.604 335.614 217.345 336.558 217.412C366.147 223.504 398.723 216.888 414.433 188.367C426.05 166.586 452.218 156.663 476.358 159.49C483.028 159.611 489.741 159.495 496.451 159.122C516.59 158.006 536.673 154.591 555.833 147.687C555.185 146.123 554.44 143.218 553.887 142.989C542.893 145.247 532.945 148.909 522.025 150.226C516.03 150.986 510.003 151.309 503.982 151.493C497.961 151.677 491.947 151.736 486.018 151.986C475.936 151.961 465.533 152.561 455.552 154.773C442.472 157.494 429.781 162.292 419.981 171.855C404.43 187.472 396.978 214.869 371.738 217.066C362.38 217.729 353.819 212.559 344.368 211.892C340.196 211.788 335.793 212.232 333.309 215.099C312.269 238.492 287.742 260.117 255.77 265.109C249.464 266.863 243.218 268.702 237.059 270.795C224.747 274.979 212.783 280.16 201.427 287.619C175.736 304.223 151.223 320.338 120.344 324.419C116.887 324.935 113.988 325.677 110.799 326.934C103.882 329.16 97.1589 331.932 90.4418 334.921L92.4334 339.651L92.4133 339.634Z" fill="#E62334"/>
</svg>
