<svg width="14" height="18" viewBox="0 0 14 18" fill="none" xmlns="http://www.w3.org/2000/svg">
<path d="M7 18.0019C5.73693 16.9245 4.56619 15.7434 3.5 14.4709C1.9 12.5599 8.83662e-07 9.71388 8.83662e-07 7.00188C-0.00141728 4.16943 1.70425 1.61527 4.32107 0.531279C6.93789 -0.552714 9.95007 0.0471218 11.952 2.05088C13.2685 3.36149 14.0059 5.14427 14 7.00188C14 9.71388 12.1 12.5599 10.5 14.4709C9.43382 15.7434 8.26307 16.9245 7 18.0019ZM7 2.00188C4.23995 2.00519 2.00331 4.24183 2 7.00188C2 8.16788 2.527 10.1869 5.035 13.1879C5.65314 13.9259 6.30902 14.6315 7 15.3019C7.69105 14.6323 8.34724 13.9277 8.966 13.1909C11.473 10.1859 12 8.16688 12 7.00188C11.9967 4.24183 9.76006 2.00519 7 2.00188ZM7 10.0019C5.34315 10.0019 4 8.65874 4 7.00188C4 5.34503 5.34315 4.00188 7 4.00188C8.65686 4.00188 10 5.34503 10 7.00188C10 7.79753 9.68393 8.56059 9.12132 9.1232C8.55871 9.68581 7.79565 10.0019 7 10.0019Z" fill="#E62D3C"/>
</svg>
