<svg width="718" height="49" viewBox="0 0 718 49" fill="none" xmlns="http://www.w3.org/2000/svg">
<path d="M24.0791 6.11149V43H16.1745V11.3813H10.9047V43H0.365106V37.7302H3V11.3813L8.26979 6.11149H8.69137H24.0791ZM42.5234 6.11149H63.6026V43H42.5234V27.1906H37.2536V43H29.3489V6.11149H37.2536V21.9209H42.5234V6.11149ZM55.6979 37.7302V11.3813H50.4281V37.7302H55.6979ZM89.9515 6.11149V14.0162H82.0468V11.3813H76.777V16.6511L89.9515 29.8255V43H68.8723V6.11149H89.9515ZM82.0468 29.8255L76.777 24.5557V37.7302H82.0468V29.8255ZM116.3 6.11149V43H108.396V25.8205L103.126 31.0903V43H95.2213V6.11149H103.126V23.1856L108.396 17.9158V6.11149H116.3ZM136.062 11.3813H132.162V43H124.258V11.3813H120.253V6.11149H136.062V11.3813ZM161.124 6.11149V19.286L147.95 32.4604V37.7302H153.22V32.4604H161.124V43H140.045V6.11149H161.124ZM153.22 11.3813H147.95V24.5557L153.22 19.286V11.3813ZM187.473 6.11149V43H179.569V11.3813H174.299V43H163.759V37.7302H166.394V11.3813L171.664 6.11149H172.086H187.473ZM200.648 6.11149V16.6511L213.822 29.8255V43H192.743V6.11149H200.648ZM205.918 29.8255L200.648 24.5557V37.7302H205.918V29.8255ZM240.171 6.11149V14.0162H232.267V11.3813H226.997V37.7302H232.267V35.0953H240.171V43H219.092V6.11149H240.171ZM266.52 6.11149V14.0162L259.88 20.6561L266.52 27.1906V43H258.616V27.1906L255.981 24.5557L253.346 27.1906V43H245.441V6.11149H253.346V19.286L258.616 14.0162V6.11149H266.52ZM271.79 6.11149H292.869V43H284.965V27.1906H279.695V43H271.79V6.11149ZM284.965 21.9209V11.3813H279.695V21.9209H284.965ZM298.139 19.286V6.11149H319.218V43H311.313V32.4604L308.679 29.8255L306.044 32.4604V43H298.139V32.4604L304.779 25.9259L298.139 19.286ZM311.313 11.3813H306.044V19.286L311.313 24.5557V11.3813ZM374.53 43H362.726V48.2698H354.821V43H342.912V6.11149H354.821V0.841702H362.726V6.11149H374.53V43ZM354.821 37.7302V11.3813H350.816V37.7302H354.821ZM366.626 11.3813H362.726V37.7302H366.626V11.3813ZM400.89 6.11149V43H379.81V35.0953H387.715V37.7302H392.985V32.4604L379.81 19.286V6.11149H387.715V19.286L392.985 24.5557V6.11149H400.89ZM420.651 11.3813H416.752V43H408.847V11.3813H404.842V6.11149H420.651V11.3813ZM445.714 6.11149V14.0162H437.809V11.3813H432.539V16.6511L445.714 29.8255V43H424.634V6.11149H445.714ZM437.809 29.8255L432.539 24.5557V37.7302H437.809V29.8255ZM472.063 6.11149V43H450.983V6.11149H472.063ZM464.158 11.3813H458.888V37.7302H464.158V11.3813ZM498.411 6.11149V43H490.507V11.3813H485.237V43H474.697V37.7302H477.332V11.3813L482.602 6.11149H483.024H498.411ZM511.586 6.11149V16.6511L524.76 29.8255V43H503.681V6.11149H511.586ZM516.856 29.8255L511.586 24.5557V37.7302H516.856V29.8255ZM551.109 6.11149V43H543.205V27.1906H537.935V43H530.03V6.11149H537.935V21.9209H543.205V6.11149H551.109ZM556.379 6.11149H577.458V43H569.554V27.1906H564.284V43H556.379V6.11149ZM569.554 21.9209V11.3813H564.284V21.9209H569.554ZM582.728 19.286V6.11149H603.807V43H595.902V32.4604L593.268 29.8255L590.633 32.4604V43H582.728V32.4604L589.368 25.9259L582.728 19.286ZM595.902 11.3813H590.633V19.286L595.902 24.5557V11.3813ZM648.58 6.11149V43H640.675V11.3813H635.405V43H624.866V37.7302H627.501V11.3813L632.77 6.11149H633.192H648.58ZM674.929 6.11149V43H667.024V25.8205L661.754 31.0903V43H653.85V6.11149H661.754V23.1856L667.024 17.9158V6.11149H674.929ZM692.003 11.3813H688.103V43H680.199V6.11149H692.003V11.3813ZM695.946 6.11149H717.025V43H709.121V27.1906H703.851V43H695.946V6.11149ZM709.121 21.9209V11.3813H703.851V21.9209H709.121Z" fill="#E62D3C"/>
</svg>
